<svg xmlns="http://www.w3.org/2000/svg" width="669" height="668" viewBox="0 0 669 668" version="1.1"><path d="M 266.630 27.147 C 265.602 27.744, 262.756 28.007, 260.305 27.731 C 257.072 27.366, 255.704 27.609, 255.318 28.614 C 255.025 29.376, 253.709 30, 252.393 30 C 251.077 30, 250 30.450, 250 31 C 250 31.550, 249.100 32, 248 32 C 246.900 32, 246 32.406, 246 32.902 C 246 33.398, 244.650 34.275, 243 34.850 C 241.350 35.425, 240 36.339, 240 36.881 C 240 37.422, 239.203 38.118, 238.228 38.427 C 237.254 38.737, 234.959 40.358, 233.128 42.030 C 230.741 44.210, 229.218 44.887, 227.748 44.420 C 226.111 43.900, 225.828 44.110, 226.346 45.459 C 226.930 46.982, 225.064 50, 223.538 50 C 223.205 50, 221.339 51.594, 219.390 53.543 C 216.876 56.058, 215.289 56.909, 213.924 56.476 C 212.449 56.008, 212 56.348, 212 57.933 C 212 59.196, 211.351 60, 210.333 60 C 209.417 60, 208.945 60.279, 209.286 60.619 C 210.044 61.378, 207.552 64, 206.071 64 C 205.482 64, 205 64.450, 205 65 C 205 65.550, 204.298 66, 203.441 66 C 202.584 66, 202.160 66.450, 202.500 67 C 202.840 67.550, 202.708 68, 202.207 68 C 201.706 68, 199.884 69.350, 198.157 71 C 196.431 72.650, 194.564 74, 194.009 74 C 193.454 74, 193 74.450, 193 75 C 193 75.550, 192.506 76, 191.901 76 C 191.297 76, 189.541 77.350, 188 79 C 186.459 80.650, 184.802 82, 184.320 82 C 183.837 82, 182.793 82.900, 182 84 C 181.207 85.100, 179.683 86, 178.613 86 C 177.542 86, 176.945 86.279, 177.286 86.619 C 178.137 87.470, 175.871 89.589, 173.203 90.435 C 171.992 90.820, 171 91.779, 171 92.567 C 171 93.355, 170.530 94, 169.955 94 C 169.380 94, 167.861 95.013, 166.580 96.250 C 162.124 100.555, 159.965 102, 157.989 102 C 156.847 102, 156 102.670, 156 103.571 C 156 105.080, 153.747 108, 152.583 108 C 151.920 108, 148.676 110.604, 145.420 113.750 C 144.139 114.987, 142.720 116, 142.266 116 C 141.813 116, 140.793 116.900, 140 118 C 139.207 119.100, 138.199 120, 137.761 120 C 136.559 120, 124.549 132.423, 124.170 134.058 C 123.988 134.841, 123.538 135.710, 123.170 135.991 C 121.827 137.012, 118 145.241, 118 147.108 C 118 148.164, 117.594 149.809, 117.097 150.764 C 116.601 151.719, 115.671 154.525, 115.030 157 C 114.389 159.475, 112.944 164.200, 111.819 167.500 C 110.694 170.800, 109.777 174.512, 109.781 175.750 C 109.785 176.987, 109.435 178, 109.004 178 C 108.262 178, 107.963 179.185, 106.420 188.250 C 106.069 190.313, 105.380 192, 104.891 192 C 104.401 192, 104 193.260, 104 194.800 C 104 196.340, 103.616 198.028, 103.147 198.550 C 102.679 199.072, 101.752 201.750, 101.088 204.500 C 99.685 210.314, 96.670 220.891, 93.925 229.631 C 92.866 233.003, 92 236.716, 92 237.881 C 92 239.047, 91.550 240, 91 240 C 90.450 240, 90 240.939, 90 242.088 C 90 243.236, 88.682 248.298, 87.072 253.338 C 85.462 258.377, 83.630 264.525, 83.002 267 C 82.374 269.475, 80.992 274.259, 79.930 277.631 C 78.869 281.003, 78 284.716, 78 285.881 C 78 287.047, 77.613 288, 77.140 288 C 76.118 288, 74.678 297.636, 74.748 304 C 74.775 306.475, 75.311 310.975, 75.940 314 C 76.569 317.025, 77.339 320.962, 77.651 322.750 C 77.963 324.538, 78.592 326, 79.049 326 C 79.505 326, 81.003 322.288, 82.376 317.750 C 85.016 309.028, 108.702 227.612, 117.214 198 C 125.409 169.492, 127.055 167.197, 156.043 143.863 C 163.994 137.462, 186.925 118.870, 207 102.546 C 227.075 86.222, 245.544 71.811, 248.043 70.521 C 259.968 64.366, 258.089 64.500, 332.500 64.500 C 404.456 64.500, 404.297 64.491, 415.400 69.267 C 418.110 70.433, 428.740 78.162, 439.022 86.443 C 499.115 134.841, 530.279 160.516, 534.142 164.813 C 541.984 173.535, 540.567 169.261, 574.161 285.500 C 584.538 321.406, 585.985 326, 586.923 326 C 587.395 326, 588.032 324.537, 588.339 322.750 C 588.646 320.962, 589.663 315.326, 590.600 310.224 C 592.037 302.393, 592.103 300.341, 591.021 297.062 C 590.315 294.926, 590.031 292.013, 590.388 290.589 C 590.746 289.165, 590.632 288, 590.136 288 C 589.639 288, 588.992 286.988, 588.697 285.750 C 588.401 284.512, 587.254 280.800, 586.147 277.500 C 581.965 265.038, 578.999 254.786, 578.965 252.681 C 578.945 251.481, 578.286 249.375, 577.500 248 C 576.714 246.625, 576.055 244.262, 576.035 242.750 C 576.016 241.238, 575.550 240, 575 240 C 574.450 240, 574 238.981, 574 237.736 C 574 236.491, 573.100 233.009, 572 230 C 570.900 226.991, 570 223.536, 570 222.323 C 570 221.110, 569.550 219.840, 569 219.500 C 568.450 219.160, 568 217.109, 568 214.941 C 568 212.773, 567.550 211, 567 211 C 566.450 211, 566 210.244, 566 209.321 C 566 207.441, 564.219 201.419, 562.877 198.764 C 562.395 197.809, 562 195.896, 562 194.514 C 562 193.131, 561.550 192, 561 192 C 560.450 192, 560 191.047, 560 189.881 C 560 188.716, 559.134 185.003, 558.075 181.631 C 557.016 178.259, 555.182 172.125, 554 168 C 552.818 163.875, 550.984 157.741, 549.925 154.369 C 548.866 150.997, 548 147.284, 548 146.119 C 548 144.953, 547.606 144, 547.125 144 C 546.644 144, 546.002 142.758, 545.698 141.241 C 545.395 139.723, 543.989 137.135, 542.574 135.491 C 541.160 133.846, 540.002 131.938, 540.001 131.250 C 540.001 130.563, 539.580 130, 539.067 130 C 538.554 130, 537.849 129.100, 537.500 128 C 537.151 126.900, 536.401 126, 535.834 126 C 535.267 126, 533.541 124.650, 532 123 C 530.459 121.350, 528.933 120, 528.610 120 C 527.777 120, 524.423 117.181, 519.390 112.250 C 517.005 109.912, 514.570 108, 513.981 108 C 513.391 108, 511.861 106.987, 510.580 105.750 C 507.312 102.593, 504.079 100, 503.410 100 C 503.098 100, 501.061 98.200, 498.883 96 C 496.705 93.800, 494.490 92, 493.961 92 C 493.433 92, 493 91.550, 493 91 C 493 90.450, 492.424 90, 491.721 90 C 491.017 90, 489.793 89.100, 489 88 C 488.207 86.900, 487.082 86, 486.500 86 C 485.918 86, 484.793 85.100, 484 84 C 483.207 82.900, 482.176 82, 481.708 82 C 481.240 82, 480.141 81.284, 479.266 80.409 C 477.936 79.079, 477.902 78.679, 479.059 77.964 C 479.820 77.493, 480.056 76.747, 479.584 76.304 C 479.112 75.862, 478.525 76.063, 478.280 76.750 C 477.431 79.126, 475.827 78.162, 467.468 70.250 C 466.161 69.013, 464.720 68, 464.266 68 C 463.813 68, 462.793 67.100, 462 66 C 461.207 64.900, 460.176 64, 459.708 64 C 459.240 64, 458.141 63.284, 457.266 62.409 C 455.936 61.079, 455.902 60.679, 457.059 59.964 C 457.820 59.493, 458.056 58.747, 457.584 58.304 C 457.112 57.862, 456.525 58.062, 456.280 58.750 C 455.615 60.611, 453.631 60.263, 452 58 C 451.207 56.900, 450.082 56, 449.500 56 C 448.918 56, 447.793 55.100, 447 54 C 446.207 52.900, 445.163 52, 444.680 52 C 444.198 52, 442.541 50.650, 441 49 C 439.459 47.350, 437.802 46, 437.320 46 C 436.837 46, 435.793 45.100, 435 44 C 434.207 42.900, 433.082 42, 432.500 42 C 431.918 42, 430.793 41.100, 430 40 C 429.207 38.900, 427.983 38, 427.279 38 C 426.576 38, 426 37.550, 426 37 C 426 36.450, 425.325 36, 424.500 36 C 423.675 36, 423 35.550, 423 35 C 423 34.450, 422.325 34, 421.500 34 C 420.675 34, 420 33.550, 420 33 C 420 32.450, 419.319 32, 418.486 32 C 417.654 32, 416.191 31.603, 415.236 31.117 C 409.554 28.226, 407.448 27.597, 403.924 27.738 C 401.766 27.824, 400 27.468, 400 26.947 C 400 25.544, 269.051 25.741, 266.630 27.147 M 224.469 209.847 C 217.180 211.166, 212.729 214.151, 210 219.552 L 207.500 224.500 207.500 325.500 L 207.500 426.500 209.722 430.655 C 214.135 438.908, 219.988 441.345, 235.500 441.389 C 251.214 441.434, 257.628 438.520, 261.702 429.486 C 263.347 425.840, 263.543 420.511, 264 367 L 264.500 308.500 267.068 312 C 268.480 313.925, 273.400 320.675, 278.001 327 C 297.052 353.187, 311.026 371.660, 313.679 374.160 C 325.136 384.964, 342.118 384.257, 353.497 372.504 C 356.249 369.661, 364.546 358.823, 371.934 348.418 C 379.323 338.013, 388.998 324.605, 393.434 318.623 L 401.500 307.746 402 367.623 C 402.487 425.936, 402.555 427.604, 404.592 431.488 C 408.752 439.419, 424.397 443.681, 439.732 441.061 C 451.718 439.013, 456.217 434.387, 458.034 422.239 C 458.506 419.082, 458.804 373.300, 458.696 320.500 L 458.500 224.500 456.179 219.788 C 454.884 217.159, 452.453 214.213, 450.679 213.126 C 445.788 210.126, 436.086 208.634, 425.808 209.299 C 412.440 210.166, 408.455 212.467, 399.039 224.759 C 384.072 244.299, 349.284 289.898, 341.098 300.705 L 332.697 311.798 321.598 297.258 C 294.933 262.324, 288.643 254.078, 274.084 234.970 C 259.829 216.261, 258.263 214.552, 253.282 212.272 C 249.012 210.317, 245.885 209.734, 238.198 209.462 C 232.864 209.273, 226.686 209.446, 224.469 209.847 M 77.655 341.543 C 77.980 342.391, 77.514 345.429, 76.618 348.293 C 74.209 355.990, 74.517 374.736, 77.097 377.450 C 77.594 377.973, 78 379.660, 78 381.200 C 78 382.740, 78.450 384, 79 384 C 79.550 384, 80 385.131, 80 386.514 C 80 387.896, 80.406 389.809, 80.903 390.764 C 81.399 391.719, 82.264 394.300, 82.825 396.500 C 83.385 398.700, 84.554 402.914, 85.422 405.865 C 86.290 408.815, 87 412.213, 87 413.415 C 87 414.617, 87.385 416.028, 87.855 416.550 C 89.040 417.866, 92 427.426, 92 429.938 C 92 431.072, 92.450 432, 93 432 C 93.550 432, 94 433.131, 94 434.514 C 94 435.896, 94.395 437.809, 94.877 438.764 C 96.337 441.653, 98 447.510, 98 449.762 C 98 450.928, 98.450 452.160, 99 452.500 C 99.550 452.840, 100 454.415, 100 456 C 100 457.585, 100.450 459.160, 101 459.500 C 101.550 459.840, 102 461.110, 102 462.323 C 102 463.536, 102.900 466.991, 104 470 C 105.100 473.009, 106 476.491, 106 477.736 C 106 478.981, 106.450 480, 107 480 C 107.550 480, 108 481.019, 108 482.264 C 108 483.509, 108.900 486.991, 110 490 C 111.100 493.009, 112 496.464, 112 497.677 C 112 498.890, 112.398 500.128, 112.885 500.429 C 113.700 500.933, 114.413 503.597, 115.445 510 C 115.945 513.101, 120.254 525.319, 121.088 526 C 121.425 526.275, 122.279 527.597, 122.986 528.937 C 124.699 532.186, 125.614 533.293, 131.599 539.344 C 137.798 545.612, 140.687 548, 142.070 548 C 142.647 548, 142.840 548.450, 142.500 549 C 142.160 549.550, 142.584 550, 143.441 550 C 144.298 550, 145 550.450, 145 551 C 145 551.550, 145.494 552, 146.099 552 C 146.703 552, 148.459 553.350, 150 555 C 151.541 556.650, 153.116 558, 153.500 558 C 153.884 558, 155.459 559.350, 157 561 C 158.541 562.650, 160.297 564, 160.901 564 C 161.506 564, 162 564.450, 162 565 C 162 565.550, 162.675 566, 163.500 566 C 164.325 566, 165 566.450, 165 567 C 165 567.550, 165.485 568, 166.078 568 C 166.672 568, 168.886 569.800, 171 572 C 173.114 574.200, 175.328 576, 175.922 576 C 176.515 576, 177 576.450, 177 577 C 177 577.550, 177.494 578, 178.099 578 C 178.703 578, 180.459 579.350, 182 581 C 183.541 582.650, 185.198 584, 185.680 584 C 186.163 584, 187.207 584.900, 188 586 C 188.793 587.100, 189.813 588, 190.266 588 C 190.720 588, 192.139 589.013, 193.420 590.250 C 196.676 593.396, 199.920 596, 200.583 596 C 201.747 596, 204 598.920, 204 600.429 C 204 601.438, 204.894 602, 206.500 602 C 207.875 602, 209 602.450, 209 603 C 209 603.550, 209.494 604, 210.099 604 C 210.703 604, 212.459 605.350, 214 607 C 215.541 608.650, 217.297 610, 217.901 610 C 218.506 610, 219 610.645, 219 611.433 C 219 612.221, 220.012 613.185, 221.250 613.576 C 222.488 613.966, 224.228 615.122, 225.117 616.143 C 226.007 617.164, 227.051 618, 227.439 618 C 227.826 618, 228.737 618.563, 229.463 619.250 C 230.189 619.938, 232.689 622.075, 235.018 624 C 237.346 625.925, 240.386 628.513, 241.772 629.750 C 243.158 630.987, 245.126 632, 246.146 632 C 247.166 632, 248 632.450, 248 633 C 248 633.550, 248.873 634, 249.941 634 C 251.009 634, 252.160 634.450, 252.500 635 C 252.840 635.550, 254.441 636, 256.059 636 C 257.677 636, 259 636.450, 259 637 C 259 637.658, 284.147 638, 332.441 638 C 380.323 638, 406.097 637.652, 406.500 637 C 406.840 636.450, 408.415 636, 410 636 C 411.585 636, 413.160 635.550, 413.500 635 C 413.840 634.450, 414.991 634, 416.059 634 C 417.127 634, 418 633.550, 418 633 C 418 632.450, 418.675 632, 419.500 632 C 420.325 632, 421 631.550, 421 631 C 421 630.450, 421.590 630, 422.311 630 C 423.033 630, 424.589 629.100, 425.770 628 C 426.950 626.900, 428.286 626, 428.737 626 C 429.189 626, 430.207 625.100, 431 624 C 431.793 622.900, 432.918 622, 433.500 622 C 434.082 622, 435.207 621.100, 436 620 C 436.793 618.900, 437.918 618, 438.500 618 C 439.082 618, 440.207 617.100, 441 616 C 441.793 614.900, 442.821 614, 443.285 614 C 443.748 614, 445.463 612.763, 447.094 611.250 C 448.726 609.738, 451.152 607.487, 452.485 606.250 C 453.818 605.013, 455.187 604, 455.526 604 C 455.865 604, 456.822 603.321, 457.652 602.491 C 458.482 601.661, 459.644 601.280, 460.235 601.645 C 460.872 602.039, 461.018 601.839, 460.595 601.155 C 460.178 600.479, 460.501 600, 461.374 600 C 462.194 600, 463.151 599.100, 463.500 598 C 463.906 596.722, 465.013 596, 466.567 596 C 467.905 596, 468.887 595.616, 468.750 595.146 C 468.436 594.072, 476.636 586, 478.041 586 C 478.612 586, 480.844 584.200, 483 582 C 485.156 579.800, 487.389 578, 487.960 578 C 488.532 578, 489 577.550, 489 577 C 489 576.450, 489.675 576, 490.500 576 C 491.325 576, 492 575.580, 492 575.067 C 492 574.554, 492.992 573.820, 494.203 573.435 C 496.778 572.618, 499 570.597, 499 569.071 C 499 568.482, 499.337 567.994, 499.750 567.987 C 500.697 567.970, 505.386 564.338, 509.092 560.750 C 510.654 559.237, 512.188 558, 512.500 558 C 512.812 558, 514.642 556.425, 516.567 554.500 C 518.492 552.575, 520.727 551, 521.533 551 C 522.340 551, 523 550.325, 523 549.500 C 523 548.675, 523.870 548, 524.933 548 C 525.996 548, 527.151 547.100, 527.500 546 C 527.849 544.900, 528.442 543.999, 528.817 543.999 C 529.193 543.998, 530.796 542.883, 532.380 541.520 C 533.965 540.158, 535.722 539.328, 536.285 539.676 C 536.873 540.039, 537.005 539.817, 536.595 539.155 C 536.203 538.520, 536.328 538, 536.874 538 C 537.419 538, 538.150 537.103, 538.498 536.006 C 538.846 534.909, 539.728 533.415, 540.458 532.685 C 543.405 529.738, 549.953 514.663, 549.985 510.750 C 549.993 509.788, 550.450 509, 551 509 C 551.550 509, 552 507.227, 552 505.059 C 552 502.891, 552.450 500.840, 553 500.500 C 553.550 500.160, 554 498.955, 554 497.822 C 554 495.858, 555.782 489.688, 560.158 476.500 C 561.253 473.200, 562.558 468.557, 563.057 466.183 C 563.556 463.808, 564.839 459.083, 565.908 455.683 C 566.976 452.282, 568.818 446.125, 570 442 C 571.182 437.875, 573.016 431.741, 574.075 428.369 C 575.134 424.997, 576 421.509, 576 420.619 C 576 419.728, 576.382 419, 576.848 419 C 577.314 419, 577.737 417.547, 577.787 415.770 C 577.838 413.994, 578.356 412.381, 578.940 412.187 C 579.523 411.992, 580 410.322, 580 408.476 C 580 406.629, 580.450 404.840, 581 404.500 C 581.550 404.160, 582 402.955, 582 401.822 C 582 400.689, 582.941 396.778, 584.090 393.131 C 591.600 369.304, 592.787 363.184, 591.155 356.701 C 590.520 354.178, 590 350.765, 590 349.116 C 590 347.467, 589.550 345.840, 589 345.500 C 588.450 345.160, 587.965 343.671, 587.922 342.191 C 587.879 340.711, 586.823 343.325, 585.575 348 C 584.327 352.675, 580.283 366.850, 576.589 379.500 C 572.895 392.150, 563.999 422.750, 556.820 447.500 C 549.642 472.250, 542.675 494.836, 541.339 497.692 C 538.138 504.534, 531.898 511.337, 519.589 521.405 C 475.367 557.576, 423.632 599.207, 420.256 601.338 C 418.002 602.761, 413.436 604.842, 410.110 605.963 C 404.248 607.938, 401.880 607.999, 332.782 607.979 L 261.500 607.958 254.829 605.603 C 246.926 602.813, 246.023 602.199, 226 585.982 C 153.889 527.580, 136.437 513.165, 132.112 508.433 C 125.841 501.571, 123.248 495.996, 118.185 478.500 C 115.958 470.800, 106.485 438.175, 97.134 406 C 87.784 373.825, 79.828 345.813, 79.456 343.750 C 79.083 341.688, 78.392 340, 77.920 340 C 77.449 340, 77.329 340.694, 77.655 341.543" stroke="none" fill="#f9b509" fill-rule="evenodd"/><path d="M 264.951 65.035 C 258.151 66.068, 249.321 69.293, 244.691 72.435 C 242.789 73.726, 225.543 87.521, 206.366 103.091 C 187.190 118.661, 164.774 136.823, 156.552 143.450 C 134.287 161.399, 129.733 165.928, 125.535 174.294 C 123.121 179.106, 117.598 196.448, 108.910 226.500 C 101.755 251.250, 92.240 283.875, 87.765 299 C 80.011 325.210, 79.627 326.969, 79.583 336.500 L 79.537 346.500 96.836 405.500 C 106.350 437.950, 115.958 470.800, 118.185 478.500 C 120.413 486.200, 123.340 494.861, 124.690 497.748 C 129.355 507.726, 129.079 507.486, 226 585.982 C 246.023 602.199, 246.926 602.813, 254.829 605.603 L 261.500 607.958 332.782 607.979 C 401.880 607.999, 404.248 607.938, 410.110 605.963 C 413.436 604.842, 418.002 602.761, 420.256 601.338 C 423.632 599.207, 475.367 557.576, 519.589 521.405 C 531.898 511.337, 538.138 504.534, 541.339 497.692 C 542.675 494.836, 549.642 472.250, 556.820 447.500 C 563.999 422.750, 572.889 392.150, 576.576 379.500 C 580.263 366.850, 584.150 353.350, 585.213 349.500 C 588.149 338.870, 587.271 330.119, 581.201 309.500 C 578.448 300.150, 568.892 267.300, 559.964 236.500 C 551.037 205.700, 542.560 178.066, 541.126 175.091 C 539.693 172.116, 536.550 167.491, 534.142 164.813 C 530.279 160.516, 499.115 134.841, 439.022 86.443 C 428.685 78.119, 418.130 70.450, 415.413 69.292 C 404.189 64.507, 405.977 64.618, 336.500 64.399 C 300.200 64.285, 268.003 64.571, 264.951 65.035 M 224.469 209.847 C 217.180 211.166, 212.729 214.151, 210 219.552 L 207.500 224.500 207.500 325.500 L 207.500 426.500 209.722 430.655 C 214.135 438.908, 219.988 441.345, 235.500 441.389 C 251.214 441.434, 257.628 438.520, 261.702 429.486 C 263.347 425.840, 263.543 420.511, 264 367 L 264.500 308.500 267.068 312 C 268.480 313.925, 273.400 320.675, 278.001 327 C 297.052 353.187, 311.026 371.660, 313.679 374.160 C 325.136 384.964, 342.118 384.257, 353.497 372.504 C 356.249 369.661, 364.546 358.823, 371.934 348.418 C 379.323 338.013, 388.998 324.605, 393.434 318.623 L 401.500 307.746 402 367.623 C 402.487 425.936, 402.555 427.604, 404.592 431.488 C 408.752 439.419, 424.397 443.681, 439.732 441.061 C 451.718 439.013, 456.217 434.387, 458.034 422.239 C 458.506 419.082, 458.804 373.300, 458.696 320.500 L 458.500 224.500 456.179 219.788 C 454.884 217.159, 452.453 214.213, 450.679 213.126 C 445.788 210.126, 436.086 208.634, 425.808 209.299 C 412.440 210.166, 408.455 212.467, 399.039 224.759 C 384.072 244.299, 349.284 289.898, 341.098 300.705 L 332.697 311.798 321.598 297.258 C 294.933 262.324, 288.643 254.078, 274.084 234.970 C 259.829 216.261, 258.263 214.552, 253.282 212.272 C 249.012 210.317, 245.885 209.734, 238.198 209.462 C 232.864 209.273, 226.686 209.446, 224.469 209.847" stroke="none" fill="#1c1c1b" fill-rule="evenodd"/></svg>